<svg width="192" height="192" viewBox="0 0 192 192" fill="none" xmlns="http://www.w3.org/2000/svg">
<path d="M28 35C28 17.8792 41.8792 4 59 4H133C150.121 4 164 17.8792 164 35V123.259C164 133.374 159.065 142.854 150.778 148.655L100.588 183.788C97.8332 185.717 94.1668 185.717 91.4122 183.788L41.2224 148.655C32.9354 142.854 28 133.374 28 123.259V35Z" fill="#155DFC"/>
<path d="M104.392 94.0059C106.554 94.1133 108.272 95.8604 108.272 98.0003C108.272 100.14 106.554 101.887 104.392 101.995L104.182 102.001H87.8176C85.5582 102.001 83.7263 100.209 83.7263 98.0003C83.7263 95.7912 85.5582 94.0001 87.8176 94.0001H104.182L104.392 94.0059Z" fill="white"/>
<path d="M104.392 78.0057C106.554 78.113 108.272 79.8601 108.272 82.0001C108.272 84.1401 106.554 85.8872 104.392 85.9945L104.182 86.0004H87.8176C85.5582 86.0004 83.7263 84.2092 83.7263 82.0001C83.7263 79.791 85.5582 77.9998 87.8176 77.9998H104.182L104.392 78.0057Z" fill="white"/>
<path d="M104.392 62.0063C106.554 62.1136 108.272 63.8608 108.272 66.0007C108.272 68.1407 106.554 69.8878 104.392 69.9951L104.182 70.001H87.8176C85.5582 70.001 83.7263 68.2099 83.7263 66.0007C83.7263 63.7916 85.5582 62.0005 87.8176 62.0005H104.182L104.392 62.0063Z" fill="white"/>
<path d="M104.392 46.0061C106.554 46.1134 108.272 47.8605 108.272 50.0005C108.272 52.1405 106.554 53.8876 104.392 53.9949L104.182 54.0008H87.8176C85.5582 54.0008 83.7263 52.2096 83.7263 50.0005C83.7263 47.7914 85.5582 46.0002 87.8176 46.0002H104.182L104.392 46.0061Z" fill="white"/>
<path fill-rule="evenodd" clip-rule="evenodd" d="M112.364 30C115.619 30.0001 118.741 31.2644 121.042 33.5148C123.344 35.7651 124.637 38.8175 124.637 42V58.0002H128.727C131.982 58.0002 135.104 59.2647 137.405 61.515C139.707 63.7653 141 66.8177 141 70.0002V106C141 109.183 139.707 112.235 137.405 114.485C135.104 116.736 131.982 118 128.727 118H63.2728C60.018 118 56.8962 116.736 54.5947 114.485C52.2933 112.235 51 109.182 51 106V82.0001C51.0001 78.8176 52.2932 75.7653 54.5947 73.5149C56.8962 71.2646 60.018 70.0002 63.2728 70.0002H67.3632V42C67.3632 38.8175 68.6563 35.7651 70.9579 33.5148C73.2594 31.2644 76.3811 30.0001 79.636 30H112.364ZM63.2728 78.0007C62.1879 78.0008 61.1472 78.4216 60.3801 79.1717C59.613 79.9218 59.1825 80.9394 59.1824 82.0001V106C59.1824 107.061 59.6131 108.078 60.3801 108.828C61.1472 109.579 62.1879 110 63.2728 110H67.3632V78.0007H63.2728ZM79.636 38.0005C78.5511 38.0006 77.5104 38.4215 76.7433 39.1716C75.9761 39.9216 75.5457 40.9392 75.5456 42V110H116.454V42C116.454 40.9392 116.024 39.9216 115.257 39.1716C114.49 38.4215 113.449 38.0006 112.364 38.0005H79.636ZM124.637 110H128.727C129.812 110 130.853 109.579 131.62 108.828C132.387 108.078 132.818 107.061 132.818 106V70.0002C132.818 68.9394 132.387 67.9218 131.62 67.1718C130.853 66.4218 129.812 66.0007 128.727 66.0007H124.637V110Z" fill="white"/>
</svg>
